<svg xmlns="http://www.w3.org/2000/svg" viewBox="0 0 286.47 267.16"><defs><style>.cls-1{font-size:17.57px;fill:#7f8878;font-family:Butler-Black, Butler;font-weight:800;}.cls-1,.cls-6{letter-spacing:0.2em;}.cls-2{letter-spacing:0.18em;}.cls-3{letter-spacing:0.17em;}.cls-4{letter-spacing:0.2em;}.cls-5{letter-spacing:0.11em;}.cls-7{fill:#566d5c;}.cls-8{fill:#fff;}.cls-9{fill:#354b3b;}</style></defs><g id="Layer_2" data-name="Layer 2"><g id="collor_pallete" data-name="collor pallete"><text class="cls-1" transform="translate(84.5 228.59)">B<tspan class="cls-2" x="16.71" y="0">r</tspan><tspan class="cls-3" x="28.79" y="0">a</tspan><tspan class="cls-4" x="41.74" y="0">wij</tspan><tspan class="cls-3" x="78.4" y="0">ay</tspan><tspan class="cls-4" x="105.16" y="0">a</tspan><tspan x="33.86" y="16.11">Film</tspan><tspan class="cls-5"><tspan x="13.07" y="32.22">F</tspan><tspan class="cls-6" x="26.04" y="32.22">est</tspan><tspan class="cls-3" x="60.85" y="32.22">iv</tspan><tspan class="cls-4" x="83.08" y="32.22">al</tspan></tspan></text><path class="cls-7" d="M286.38,140.81s-.21-4-.51-9.9c0-.75-.09-1.52-.13-2.32s-.24-1.62-.36-2.46c-.26-1.69-.52-3.47-.8-5.31s-.59-3.75-.89-5.68-.92-3.83-1.38-5.77l-1.49-5.75c-.25-.94-.5-1.88-.74-2.81l-.95-2.67c-1.28-3.51-2.48-6.77-3.51-9.58s-2.29-5-3-6.54l-1.18-2.47-1.2-2.45a58.93,58.93,0,0,0-3.53-6.27c-1.58-2.53-3.28-5.58-5.39-8.63l-7-9.35c-5.17-6-10.53-11.9-15.09-15.74-2.22-2-4-3.7-5.38-4.78l-2.17-1.64-8-5.93c-5.07-3.12-11.7-7.56-19-10.77l-5.36-2.55c-1.8-.75-3.63-1.38-5.37-2-3.52-1.23-6.74-2.58-9.63-3.34l-9.63-2.48-2.65-.67L165,1.79A88,88,0,0,0,154.87.57L143.24,0,131.6.57a85.87,85.87,0,0,0-10.09,1.22l-7.12,1.12-2.65.66-9.63,2.49C99.22,6.81,96,8.17,92.48,9.4c-1.75.66-3.57,1.29-5.38,2L81.75,14c-7.3,3.21-13.93,7.65-19,10.76l-8,5.93-2.17,1.65c-1.37,1.08-3.16,2.79-5.38,4.78C42.68,41,37.32,46.83,32.15,52.85l-7,9.34c-2.12,3.06-3.82,6.1-5.39,8.63a58.11,58.11,0,0,0-3.53,6.28L15,79.55,13.85,82c-.71,1.58-1.91,3.77-3,6.54s-2.23,6.07-3.51,9.57c-.32.88-.63,1.78-1,2.68s-.49,1.87-.74,2.81l-1.49,5.75c-.46,1.93-1,3.85-1.38,5.77s-.6,3.83-.89,5.68-.55,3.62-.8,5.31q-.18,1.26-.36,2.46c0,.8-.09,1.57-.14,2.31l-.5,9.9s-.07,1-.09,2.73.21,4.21.37,7.18.24,6.45.75,10.13l1.94,11.52.53,2.93c.27,1,.54,1.9.8,2.84.53,1.89,1.06,3.75,1.57,5.54a77,77,0,0,0,3.17,9.68l3.78,9.2s.35.93,1.1,2.5l3.41,6.35c.72,1.3,1.49,2.72,2.31,4.22a36.71,36.71,0,0,0,2.79,4.58l.83,1.2c3.33-7,9.36-11.71,15.65-13.1l16.69-10.45a1.68,1.68,0,0,1,2.25.29l4.43,6.42c1.07,1.53,2.39,2.85,3.31,3.95H72l.13-.12a.13.13,0,0,1,.19,0l.11.13h2.45c-.66-.71-1.29-1.5-2-2.28-1.56-1.9-3.41-3.79-5-5.89L63.53,194a17.28,17.28,0,0,1-1.84-3l-1.5-2.79c-.95-1.73-1.74-3.16-2.3-4.16a17.62,17.62,0,0,1-.7-1.66l-2.48-6.06a41.53,41.53,0,0,1-2.06-6.37c-.34-1.18-.7-2.4-1.06-3.63L51,164.43l-.31-1.94c-.44-2.58-.89-5.16-1.3-7.58s-.28-4.76-.45-6.72-.23-3.61-.31-4.76.09-1.8.09-1.8.13-2.63.33-6.57c0-.49,0-1,.06-1.54s.18-1.06.27-1.62c.17-1.11.36-2.29.55-3.5s.36-2.48.55-3.75.64-2.52.94-3.79.65-2.54,1-3.79c.15-.62.3-1.24.46-1.86s.43-1.18.64-1.75c.84-2.31,1.63-4.46,2.3-6.31s1.55-3.25,2-4.29l.78-1.63.77-1.62a31.47,31.47,0,0,1,2.34-4.13c1.07-1.66,2.14-3.7,3.54-5.71l4.62-6.18c3.48-3.94,7-7.9,10-10.4,1.47-1.31,2.63-2.48,3.53-3.19l1.46-1.07L90.12,65c3.4-2,7.72-5,12.56-7.07l3.51-1.71c1.19-.49,2.4-.87,3.55-1.31,2.32-.78,4.42-1.76,6.32-2.22l6.34-1.63,1.74-.46,4.71-.69a49.34,49.34,0,0,1,6.66-.83l7.73-.4,7.71.4a49.71,49.71,0,0,1,6.67.83l4.7.69,1.74.47,6.34,1.62c1.91.47,4,1.44,6.33,2.22,1.14.44,2.36.82,3.55,1.31l3.51,1.72C188.63,60,193,63,196.34,65l5.25,3.94L203,70c.91.71,2.07,1.89,3.54,3.2,3.06,2.49,6.53,6.46,10,10.39l4.62,6.18c1.4,2,2.47,4,3.53,5.71a29.3,29.3,0,0,1,2.34,4.13l.78,1.63.78,1.62c.46,1,1.3,2.47,2,4.3s1.46,4,2.29,6.3c.22.58.43,1.16.65,1.75s.31,1.24.46,1.86c.32,1.25.64,2.52,1,3.79s.74,2.52,1,3.79.37,2.53.55,3.75.37,2.39.55,3.5c.09.56.18,1.1.26,1.62s.05,1,.07,1.54c.2,3.94.33,6.57.33,6.57s.06.66.08,1.81-.18,2.78-.3,4.75-.1,4.29-.45,6.72-.86,5-1.3,7.58l-.32,1.94-.55,1.87c-.37,1.23-.72,2.45-1.06,3.63a40.08,40.08,0,0,1-2.07,6.37l-2.48,6.06s-.21.62-.69,1.66-1.35,2.43-2.3,4.16c-.47.86-1,1.8-1.5,2.79a17.9,17.9,0,0,1-1.84,3l-4.38,6.34c-1.58,2.1-3.43,4-5,5.89-.69.78-1.31,1.57-2,2.28h2.45l.11-.13a.13.13,0,0,1,.19,0l.14.12h6.29c.92-1.1,2.25-2.43,3.32-4l4.43-6.42a1.69,1.69,0,0,1,2.25-.28l17,10.66H251l.76,2.46,5.64,3.53a1.72,1.72,0,0,1,.35,2.48l-2.84,4.09.81,2.63h0l2.28,1.63a.17.17,0,0,1,0,.23l-1.1,1.59s-.08,0-.13,0l.72,2.33,6.44-9.3a36.71,36.71,0,0,0,2.79-4.58l2.3-4.22,3.42-6.34c.74-1.57,1.09-2.51,1.09-2.51s1.52-3.68,3.78-9.2a75.41,75.41,0,0,0,3.17-9.68l1.58-5.53c.26-.94.52-1.89.79-2.85l.53-2.93c.66-3.92,1.33-7.84,2-11.52s.53-7.16.75-10.13.28-5.44.37-7.18S286.38,140.81,286.38,140.81Zm-2.17-6.62.1,1.92a.16.16,0,0,1-.14.18l-2.79.14a.17.17,0,0,1-.16-.17l-.1-1.88c0-.09.06-.18.14-.18l2.79-.19A.18.18,0,0,1,284.21,134.19Zm-.51-5.85a.17.17,0,0,1,.17.15c.05,0,.14,1.94.14,1.94a.19.19,0,0,1-.14.19l-2.79.24c-.08,0-.15-.06-.16-.16s-.08-1.89-.13-1.89a.15.15,0,0,1,.12-.18Zm-.67-5.49.29,1.92a.16.16,0,0,1-.12.19l-2.78.36a.16.16,0,0,1-.17-.15L280,123.3a.15.15,0,0,1,.12-.19l2.77-.41A.16.16,0,0,1,283,122.85Zm-.87-5.63.3,1.91a.18.18,0,0,1-.12.2l-2.75.47a.16.16,0,0,1-.18-.15l-.29-1.87a.17.17,0,0,1,.12-.2l2.75-.51C282.06,117.05,282.14,117.12,282.16,117.22Zm-41.35-7.39L270.5,99.66a1.86,1.86,0,0,1,2.25,1.26l.3.85a16,16,0,0,1,.69,2.27c.49,1.9,1.15,4.44,1.81,7a63.06,63.06,0,0,1,1.56,7l.5,3.24a1.8,1.8,0,0,1-1.37,2.14L245.19,128a1.58,1.58,0,0,1-1.88-1.17c.39-.07-3.29-15.22-3.6-15.13A1.52,1.52,0,0,1,240.81,109.83ZM239.39,106a1.54,1.54,0,0,1-2.06-.74s-.16-.46-.41-1.14-.73-1.55-1.14-2.43c-.85-1.75-1.69-3.5-1.69-3.5s-.82-1.78-1.7-3.51-2-3.33-2-3.33a1.58,1.58,0,0,1,.7-2.1l26.71-16.48a1.78,1.78,0,0,1,2.42.76L262.88,78c1.2,2.32,2.32,4.69,2.32,4.69s4.61,9.41,4.34,9.52a1.85,1.85,0,0,1-.9,2.42Zm2.75,28.38-2.78.24a.12.12,0,0,1-.15-.11,11.71,11.71,0,0,0-.09-1.32c0-.06,0-.12.13-.13l2.79-.29a.15.15,0,0,1,.16.1,12.6,12.6,0,0,1,.09,1.37A.16.16,0,0,1,242.14,134.33Zm.27,2.52.06,1.36c0,.06-.06.12-.14.13l-2.79.13a.14.14,0,0,1-.16-.11l-.06-1.32a.15.15,0,0,1,.14-.13l2.79-.18A.15.15,0,0,1,242.41,136.85Zm-.75-6.5-2.78.35a.13.13,0,0,1-.16-.09l-.21-1.31c0-.06.05-.12.13-.13l2.77-.41a.15.15,0,0,1,.17.1l.2,1.35A.14.14,0,0,1,241.66,130.35Zm-2.54,22.27c0-.07.06-.12.15-.11l2.78.26c.08,0,.15.08.14.14l-.06,1.37c0,.07-.08.11-.15.1l-2.78-.31c-.09,0-.15-.06-.14-.13Zm3.06-2.25-2.79-.19c-.09,0-.15-.07-.14-.14l.07-1.32a.13.13,0,0,1,.15-.11l2.79.15a.15.15,0,0,1,.15.14l-.08,1.35A.13.13,0,0,1,242.18,150.37Zm-2.57-4.09c-.09,0-.14-.06-.14-.13l.08-1.32a.14.14,0,0,1,.16-.11l2.8,0a.15.15,0,0,1,.14.13l-.09,1.36a.15.15,0,0,1-.15.13Zm2.94-3.93-2.8,0a.14.14,0,0,1-.15-.12l0-.66,0-.66a.13.13,0,0,1,.14-.13l2.8-.07a.15.15,0,0,1,.16.12l0,.69,0,.68C242.7,142.3,242.63,142.35,242.55,142.35ZM241,124.89l.2,1.35c0,.07-.06.13-.13.15l-2.76.47a.13.13,0,0,1-.16-.09l-.19-1.31c0-.07,0-.13.13-.15l2.74-.51A.13.13,0,0,1,241,124.89Zm-2.34,31.58a.13.13,0,0,1,.17-.09l2.77.37a.14.14,0,0,1,.12.14l-.23,1.34a.15.15,0,0,1-.17.1l-2.77-.42c-.08,0-.13-.07-.12-.14Zm3.92,7.43c.65-3.84,1.31-7.68,1.31-7.68a1.71,1.71,0,0,1,1.92-1.22L277,158.54a1.7,1.7,0,0,1,1.36,2.08s-.87,5.16-1.75,10.33a50.36,50.36,0,0,1-1.68,7l-.9,3.15a1.79,1.79,0,0,1-2.15,1.36l-30-9.15a1.61,1.61,0,0,1-1.22-1.86s.28-.94.68-2.34A31.5,31.5,0,0,0,242.56,163.9Zm34.75-10.74-31.3-2.3a1.6,1.6,0,0,1-1.6-1.55s.54-7.8.26-7.8l-.38-7.81a1.64,1.64,0,0,1,1.54-1.6L277,128.76a1.72,1.72,0,0,1,1.85,1.72l.53,10.44c.31,0-.32,10.44-.32,10.44A1.77,1.77,0,0,1,277.31,153.16Zm3.48-41.67a.17.17,0,0,1,.19.14l.47,1.88a.16.16,0,0,1-.1.21l-2.73.58a.19.19,0,0,1-.2-.14l-.45-1.84a.16.16,0,0,1,.1-.2ZM279.38,106a.17.17,0,0,1,.19.13l.48,1.87a.16.16,0,0,1-.1.21l-2.71.7a.18.18,0,0,1-.19-.13l-.47-1.83a.17.17,0,0,1,.1-.21Zm-1.32-5.38c.05,0,.55,1.86.55,1.86a.18.18,0,0,1-.1.21l-2.68.8a.17.17,0,0,1-.19-.12s-.49-1.83-.53-1.82a.15.15,0,0,1,.09-.2l2.66-.85A.17.17,0,0,1,278.06,100.59Zm-2.14-5.49a.17.17,0,0,1,.2.12l.66,1.82a.16.16,0,0,1-.08.22l-2.64.91a.17.17,0,0,1-.2-.11l-.65-1.78a.16.16,0,0,1,.08-.22Zm-1.78-5.23.67,1.8a.17.17,0,0,1-.07.23l-2.6,1a.17.17,0,0,1-.21-.12L271.28,91a.17.17,0,0,1,.08-.23l2.58-1.06A.16.16,0,0,1,274.14,89.87Zm-2.52-5.32a.17.17,0,0,1,.22.1l.82,1.74a.17.17,0,0,1-.05.23L270,87.74a.17.17,0,0,1-.21-.1L269,85.93a.16.16,0,0,1,.06-.22Zm-2.27-5,.43.87.42.88a.16.16,0,0,1-.06.22l-2.51,1.22a.16.16,0,0,1-.21-.08l-.41-.86-.42-.85a.18.18,0,0,1,.06-.23l2.49-1.27A.17.17,0,0,1,269.35,79.5Zm-2.62-5.06s1,1.65,1,1.67a.18.18,0,0,1-.05.23l-2.47,1.33c-.07,0-.16,0-.21-.09S264,76,264,76a.17.17,0,0,1,0-.23l2.44-1.36A.17.17,0,0,1,266.73,74.44Zm-3-4.89,1,1.66a.17.17,0,0,1,0,.23l-2.41,1.42a.17.17,0,0,1-.22-.07l-1-1.62a.16.16,0,0,1,0-.22l2.38-1.47A.17.17,0,0,1,263.78,69.55Zm-3-4.86,1,1.65a.16.16,0,0,1,0,.23l-2.35,1.51a.14.14,0,0,1-.21-.06l-1-1.61a.18.18,0,0,1,0-.23l2.32-1.56A.17.17,0,0,1,260.8,64.69Zm-3.35-4.61,1.15,1.55a.17.17,0,0,1,0,.23l-2.29,1.61a.16.16,0,0,1-.22,0L255,61.9a.15.15,0,0,1,0-.22L257.22,60A.17.17,0,0,1,257.45,60.08ZM254,55.51l1.16,1.55a.17.17,0,0,1,0,.23L253,59c-.06.06-.16,0-.23,0l-1.13-1.51a.18.18,0,0,1,0-.24l2.18-1.74A.18.18,0,0,1,254,55.51Zm-3.86-4.42a.18.18,0,0,1,.23,0l1.29,1.43a.17.17,0,0,1,0,.23l-2.15,1.79a.16.16,0,0,1-.23,0l-1.27-1.4a.17.17,0,0,1,0-.23Zm-5.87-2.3,2-1.91a.15.15,0,0,1,.22,0l1.3,1.43a.16.16,0,0,1,0,.23l-2.07,1.88a.17.17,0,0,1-.23,0L244.3,49A.16.16,0,0,1,244.3,48.79Zm4.62,8.45,6.27,8.38a1.71,1.71,0,0,1-.26,2.49l-26,17.54a1.68,1.68,0,0,1-2.25-.21s-2.34-3.12-4.67-6.25c-1.22-1.52-2.61-2.89-3.57-4l-1.64-1.81a1.65,1.65,0,0,1,.25-2.24L239.46,49.2a1.75,1.75,0,0,1,2.5.24l2.2,2.42C245.45,53.33,247.29,55.2,248.92,57.24Zm-6.48-14.51a.18.18,0,0,1,.23,0,8.43,8.43,0,0,1,.7.67l.66.71a.16.16,0,0,1,0,.23l-2,2a.15.15,0,0,1-.22,0l-.64-.7c-.32-.34-.68-.65-.68-.65a.17.17,0,0,1,0-.23Zm-4.2-3.84a.17.17,0,0,1,.23,0l1.42,1.3a.17.17,0,0,1,0,.23l-1.92,2a.16.16,0,0,1-.23,0l-1.4-1.27a.17.17,0,0,1,0-.23ZM234,35.07a.16.16,0,0,1,.23,0l1.44,1.29a.17.17,0,0,1,0,.23l-1.83,2.12a.17.17,0,0,1-.23,0l-1.4-1.26a.17.17,0,0,1,0-.23Zm-4.48-3.51a.17.17,0,0,1,.24,0l.77.58.77.58a.17.17,0,0,1,.05.23l-1.75,2.18a.17.17,0,0,1-.23,0l-.75-.56-.76-.57a.17.17,0,0,1-.05-.23ZM225,28.15c0-.07.15-.07.23,0l1.55,1.15a.16.16,0,0,1,.05.22l-1.65,2.26a.18.18,0,0,1-.24,0l-1.51-1.12a.18.18,0,0,1-.05-.23Zm-4.69-3.22a.17.17,0,0,1,.23,0l1.65,1a.17.17,0,0,1,.07.22l-1.57,2.31a.17.17,0,0,1-.23,0l-1.62-1a.15.15,0,0,1-.06-.21Zm-4.86-3a.16.16,0,0,1,.22,0l1.65,1a.15.15,0,0,1,.08.21l-1.47,2.38a.17.17,0,0,1-.23,0l-1.62-1a.17.17,0,0,1-.07-.22ZM210.53,19a.16.16,0,0,1,.22,0l1.66,1a.18.18,0,0,1,.08.22l-1.37,2.44a.16.16,0,0,1-.22,0l-1.63-1a.19.19,0,0,1-.08-.22Zm-5.13-2.49a.17.17,0,0,1,.23-.06l1.74.84a.16.16,0,0,1,.09.21L206.19,20a.16.16,0,0,1-.23.06l-1.7-.82a.16.16,0,0,1-.09-.22Zm-5.14-2.47a.16.16,0,0,1,.22-.06l1.75.84a.18.18,0,0,1,.1.21l-1.18,2.54a.17.17,0,0,1-.22.06l-1.7-.82a.17.17,0,0,1-.1-.21ZM195,11.89a.18.18,0,0,1,.22-.08l1.81.68a.15.15,0,0,1,.11.2l-1.07,2.58a.15.15,0,0,1-.21.08l-1.78-.66a.15.15,0,0,1-.1-.2Zm-5.36-2a.16.16,0,0,1,.22-.08l1.82.66a.16.16,0,0,1,.11.2l-1,2.63a.17.17,0,0,1-.21.08l-1.79-.65a.17.17,0,0,1-.11-.2Zm-5.4-1.85a.2.2,0,0,1,.23-.1l.93.26.9.32c.1,0,.16.13.13.21l-.85,2.66a.16.16,0,0,1-.22.08l-.89-.31-.91-.25a.18.18,0,0,1-.13-.2Zm-5.51-1.44a.16.16,0,0,1,.21-.1L180.8,7a.16.16,0,0,1,.13.19l-.74,2.7a.18.18,0,0,1-.21.1l-1.83-.47a.18.18,0,0,1-.14-.19Zm-5.54-1.41a.17.17,0,0,1,.21-.1l.94.24.94.24a.16.16,0,0,1,.13.18l-.63,2.73a.17.17,0,0,1-.2.1l-.92-.23-.92-.23a.18.18,0,0,1-.14-.2Zm-5.6-1a.17.17,0,0,1,.2-.12l1.91.3a.17.17,0,0,1,.15.17l-.53,2.75a.17.17,0,0,1-.2.12l-1.86-.29A.17.17,0,0,1,167.1,7ZM162,3.35a.15.15,0,0,1,.18-.12l1.92.28a.18.18,0,0,1,.16.18l-.42,2.76a.17.17,0,0,1-.19.13l-1.88-.29a.16.16,0,0,1-.14-.17Zm-11.33-1a.16.16,0,0,1,.18-.14l1.93.1a.17.17,0,0,1,.17.16l-.19,2.79a.17.17,0,0,1-.18.14l-1.89-.1a.16.16,0,0,1-.17-.16Zm-5.69-.27c0-.08.09-.14.18-.14L147,2a.16.16,0,0,1,.17.16L147.13,5a.15.15,0,0,1-.18.14L145.07,5a.18.18,0,0,1-.17-.16ZM139.43,2l1.92-.09a.16.16,0,0,1,.18.14l0,2.8a.18.18,0,0,1-.18.16l-1.88.08a.17.17,0,0,1-.18-.14l-.08-2.79A.18.18,0,0,1,139.43,2Zm-5.7.28,1.93-.1a.16.16,0,0,1,.18.14L136,5.12a.15.15,0,0,1-.16.16l-1.89.1a.17.17,0,0,1-.18-.14l-.18-2.79A.16.16,0,0,1,133.73,2.29ZM122.42,3.51l1.9-.28a.16.16,0,0,1,.2.12l.37,2.77a.18.18,0,0,1-.16.18l-1.86.28a.17.17,0,0,1-.2-.13l-.42-2.76C122.24,3.61,122.32,3.53,122.42,3.51Zm-5.65.88,1.91-.3a.18.18,0,0,1,.21.12L119.37,7a.17.17,0,0,1-.15.18l-1.87.29a.16.16,0,0,1-.2-.12l-.53-2.75A.16.16,0,0,1,116.77,4.39ZM111.2,5.6l.94-.23.94-.24a.17.17,0,0,1,.2.1L113.87,8a.16.16,0,0,1-.13.19l-.92.23-.92.23a.17.17,0,0,1-.21-.1l-.64-2.73A.19.19,0,0,1,111.2,5.6ZM105.66,7l1.88-.48a.17.17,0,0,1,.21.1l.7,2.71a.18.18,0,0,1-.13.19l-1.83.47a.18.18,0,0,1-.21-.1l-.75-2.7A.17.17,0,0,1,105.66,7Zm-5.5,1.55.92-.33L102,8a.18.18,0,0,1,.22.1l.81,2.67a.17.17,0,0,1-.12.19l-.92.26-.89.32a.16.16,0,0,1-.21-.09l-.85-2.67A.15.15,0,0,1,100.16,8.57ZM94.8,10.51l1.82-.66a.15.15,0,0,1,.21.08l.92,2.64a.17.17,0,0,1-.11.2l-1.78.65a.18.18,0,0,1-.22-.08l-1-2.63A.17.17,0,0,1,94.8,10.51Zm-5.36,2,1.82-.68a.16.16,0,0,1,.21.08l1,2.6a.18.18,0,0,1-.1.21l-1.78.66a.17.17,0,0,1-.22-.09l-1.07-2.58A.16.16,0,0,1,89.44,12.49Zm-5.2,2.35L86,14a.16.16,0,0,1,.22.06l1.13,2.56a.17.17,0,0,1-.09.22l-1.71.81a.17.17,0,0,1-.22-.06l-1.17-2.54A.16.16,0,0,1,84.24,14.84ZM79.1,17.31l1.74-.84a.17.17,0,0,1,.22.06L82.3,19a.17.17,0,0,1-.09.21l-1.7.82a.17.17,0,0,1-.23-.06L79,17.52A.17.17,0,0,1,79.1,17.31Zm-5,2.66,1.66-1a.15.15,0,0,1,.22.05l1.34,2.46a.18.18,0,0,1-.08.21l-1.62,1a.17.17,0,0,1-.22-.05L74,20.19A.17.17,0,0,1,74.05,20Zm-4.88,3,1.65-1a.17.17,0,0,1,.23,0l1.43,2.4a.16.16,0,0,1-.07.22l-1.62,1a.17.17,0,0,1-.23,0l-1.47-2.38C69.05,23.08,69.09,23,69.17,22.93Zm-4.86,3,1.64-1a.16.16,0,0,1,.23,0l1.53,2.35a.15.15,0,0,1-.07.22l-1.6,1a.19.19,0,0,1-.24,0l-1.57-2.32A.17.17,0,0,1,64.31,25.91Zm-4.59,3.38,1.55-1.15a.16.16,0,0,1,.23,0l1.62,2.28a.18.18,0,0,1-.06.23l-1.51,1.13a.17.17,0,0,1-.23,0l-1.66-2.25A.16.16,0,0,1,59.72,29.29Zm-4.56,3.42.77-.58.77-.58a.17.17,0,0,1,.23,0l1.71,2.21a.17.17,0,0,1,0,.23l-.76.56-.75.57a.17.17,0,0,1-.24,0L55.1,32.94A.17.17,0,0,1,55.16,32.71Zm-4.37,3.66,1.43-1.29a.16.16,0,0,1,.23,0l1.8,2.14a.17.17,0,0,1,0,.23l-1.4,1.26a.17.17,0,0,1-.23,0L50.75,36.6A.18.18,0,0,1,50.79,36.37Zm-4.23,3.84L48,38.9a.17.17,0,0,1,.23,0L50.11,41a.16.16,0,0,1,0,.23l-1.4,1.27a.15.15,0,0,1-.22,0l-1.92-2A.15.15,0,0,1,46.56,40.21Zm-4.12,3.92.65-.71c.33-.35.7-.67.7-.67a.16.16,0,0,1,.23,0l2,2A.16.16,0,0,1,46,45a9.11,9.11,0,0,0-.68.66l-.64.69a.16.16,0,0,1-.23,0l-2-2A.16.16,0,0,1,42.44,44.13Zm2.06,5.32a1.73,1.73,0,0,1,2.5-.24L69.45,71.14a1.66,1.66,0,0,1,.24,2.25l-1.63,1.8c-1,1.11-2.36,2.48-3.58,4l-4.67,6.25a1.67,1.67,0,0,1-2.24.2l-26-17.53a1.71,1.71,0,0,1-.27-2.49l6.27-8.38c1.63-2,3.47-3.91,4.76-5.39Zm-2.44,99.86a1.61,1.61,0,0,1-1.6,1.55l-31.3,2.3a1.77,1.77,0,0,1-1.79-1.79s-.63-10.45-.32-10.45l.53-10.43a1.72,1.72,0,0,1,1.85-1.73l31.21,3.34a1.65,1.65,0,0,1,1.54,1.61l-.39,7.8C41.52,141.51,42.06,149.31,42.06,149.31ZM9.49,158.54,40.67,155a1.71,1.71,0,0,1,1.93,1.22s.65,3.85,1.31,7.69a31.12,31.12,0,0,0,1.26,5.19l.68,2.34a1.61,1.61,0,0,1-1.22,1.86l-30,9.15a1.78,1.78,0,0,1-2.15-1.35l-.9-3.15a50.72,50.72,0,0,1-1.68-7c-.88-5.17-1.75-10.33-1.75-10.33A1.7,1.7,0,0,1,9.49,158.54Zm34.71-9.78,2.8-.15a.13.13,0,0,1,.15.11l.07,1.33c0,.06,0,.12-.14.12l-2.79.2a.13.13,0,0,1-.15-.11l-.08-1.36A.16.16,0,0,1,44.2,148.76Zm-.29-2.52-.09-1.35a.14.14,0,0,1,.14-.13l2.8,0a.14.14,0,0,1,.15.12l.09,1.31a.15.15,0,0,1-.14.13l-2.8.09A.15.15,0,0,1,43.91,146.24Zm.5,6.54,2.79-.27a.12.12,0,0,1,.15.11l.06,1.32c0,.07-.06.12-.14.14l-2.78.31c-.08,0-.15,0-.15-.11l-.07-1.37A.15.15,0,0,1,44.41,152.78Zm.4-22.43c-.07,0-.14-.08-.13-.14l.21-1.35a.14.14,0,0,1,.17-.1l2.76.41c.09,0,.14.07.13.14l-.2,1.3a.15.15,0,0,1-.17.1Zm2.4,2.66c.09,0,.14.07.13.14a11.38,11.38,0,0,0-.08,1.31.13.13,0,0,1-.15.12l-2.79-.25a.16.16,0,0,1-.14-.14,12.42,12.42,0,0,1,.09-1.36.14.14,0,0,1,.16-.11Zm-3,3.72,2.79.18a.14.14,0,0,1,.14.13l-.07,1.32a.14.14,0,0,1-.15.12l-2.8-.14a.14.14,0,0,1-.14-.13l.07-1.36C44.06,136.78,44.14,136.73,44.22,136.73Zm-.21,4,2.79.07c.09,0,.15.06.14.13l0,.66,0,.66a.15.15,0,0,1-.16.12l-2.8,0a.13.13,0,0,1-.13-.13l0-.68,0-.69A.16.16,0,0,1,44,140.74Zm1.16,17.6a.15.15,0,0,1-.17-.11l-.23-1.34a.14.14,0,0,1,.12-.14l2.77-.37a.13.13,0,0,1,.17.09l.23,1.3c0,.07,0,.13-.13.14Zm.25-31.95c-.08,0-.14-.08-.13-.15l.2-1.35a.14.14,0,0,1,.16-.09l2.75.52a.14.14,0,0,1,.13.14l-.19,1.31a.13.13,0,0,1-.16.09Zm-2.26.46A1.58,1.58,0,0,1,41.28,128l-31-4.59a1.81,1.81,0,0,1-1.38-2.15s.21-1.29.51-3.23a58.42,58.42,0,0,1,1.56-7c.66-2.54,1.31-5.07,1.81-7a15,15,0,0,1,.69-2.26l.3-.85A1.86,1.86,0,0,1,16,99.66l29.69,10.17a1.52,1.52,0,0,1,1.09,1.88C46.45,111.62,42.77,126.77,43.16,126.85ZM17.82,94.59a1.84,1.84,0,0,1-.9-2.41c-.26-.11,4.35-9.53,4.35-9.53s1.11-2.37,2.32-4.69l2.7-4.48a1.8,1.8,0,0,1,2.43-.76L55.43,89.2a1.59,1.59,0,0,1,.69,2.11l-2,3.32c-.88,1.73-1.7,3.5-1.7,3.51s-.85,1.75-1.69,3.5c-.41.89-.9,1.74-1.14,2.43s-.41,1.14-.41,1.14a1.54,1.54,0,0,1-2.06.74ZM38.59,48.33,39.9,46.9a.15.15,0,0,1,.22,0l2,1.91a.17.17,0,0,1,0,.23l-1.27,1.39a.16.16,0,0,1-.23,0l-2.08-1.87A.18.18,0,0,1,38.59,48.33Zm-3.82,4.24,1.29-1.44a.17.17,0,0,1,.23,0l2.12,1.83a.16.16,0,0,1,0,.23l-1.26,1.4a.18.18,0,0,1-.23,0l-2.15-1.8A.16.16,0,0,1,34.77,52.57Zm-2.33,3a.16.16,0,0,1,.22-.05l2.19,1.74a.17.17,0,0,1,0,.23L33.73,59a.18.18,0,0,1-.23,0l-2.21-1.71a.16.16,0,0,1,0-.23ZM29,60.08a.17.17,0,0,1,.23,0l2.26,1.65a.18.18,0,0,1,0,.23l-1.13,1.51a.16.16,0,0,1-.22,0l-2.29-1.62a.16.16,0,0,1,0-.22Zm-3.34,4.61a.16.16,0,0,1,.21-.07l2.32,1.56a.17.17,0,0,1,0,.23l-1,1.62a.18.18,0,0,1-.22.06l-2.35-1.52a.18.18,0,0,1,0-.23Zm-3,4.87a.18.18,0,0,1,.23-.08l2.38,1.46a.17.17,0,0,1,0,.24l-1,1.61a.19.19,0,0,1-.23.08l-2.41-1.43a.18.18,0,0,1,0-.23Zm-2.94,4.88a.17.17,0,0,1,.22-.08l2.44,1.36a.17.17,0,0,1,0,.23s-1,1.61-1,1.63a.16.16,0,0,1-.21.09l-2.46-1.33a.17.17,0,0,1-.05-.23C18.72,76.09,19.74,74.44,19.74,74.44Zm-3,5.93.42-.87a.16.16,0,0,1,.21-.09l2.49,1.27a.15.15,0,0,1,.06.22l-.41.85-.41.86a.17.17,0,0,1-.22.09l-2.51-1.22a.18.18,0,0,1-.05-.24Zm-2.06,4.28a.17.17,0,0,1,.21-.1l2.55,1.16a.18.18,0,0,1,.06.23l-.81,1.7a.18.18,0,0,1-.22.1l-2.56-1.12a.17.17,0,0,1-.06-.23Zm-2.31,5.21c0-.08.13-.14.2-.11l2.59,1.06a.18.18,0,0,1,.08.23l-.66,1.78a.16.16,0,0,1-.2.1l-2.6-1a.17.17,0,0,1-.08-.22Zm-2,5.37a.16.16,0,0,1,.2-.12l2.63,1a.16.16,0,0,1,.08.21l-.65,1.78a.17.17,0,0,1-.2.11l-2.65-.91a.17.17,0,0,1-.08-.21Zm-1.94,5.36a.18.18,0,0,1,.19-.12l2.67.85a.16.16,0,0,1,.09.21s-.54,1.81-.54,1.81a.16.16,0,0,1-.19.13L8,102.67a.18.18,0,0,1-.09-.22S8.36,100.58,8.41,100.59ZM6.9,106.11a.17.17,0,0,1,.19-.14l2.7.74a.18.18,0,0,1,.1.21l-.48,1.83a.16.16,0,0,1-.19.13l-2.71-.69a.17.17,0,0,1-.09-.21Zm-1.42,5.53a.17.17,0,0,1,.19-.14l2.73.62a.16.16,0,0,1,.1.21L8,114.16a.17.17,0,0,1-.19.14l-2.74-.58a.18.18,0,0,1-.1-.21Zm-1.17,5.58a.16.16,0,0,1,.17-.15l2.75.52a.16.16,0,0,1,.12.2l-.29,1.87a.17.17,0,0,1-.18.14l-2.75-.48a.15.15,0,0,1-.12-.19Zm-.87,5.63a.16.16,0,0,1,.17-.15l2.77.41a.16.16,0,0,1,.12.19l-.28,1.87c0,.09-.1.17-.18.16L3.27,125a.17.17,0,0,1-.12-.2Zm-.84,5.66c0-.1.09-.18.17-.17l2.78.29a.17.17,0,0,1,.13.2s-.13,1.87-.13,1.87-.09.18-.17.17l-2.78-.25a.19.19,0,0,1-.14-.2S2.55,128.5,2.6,128.51Zm-.34,5.68c0-.1.07-.18.15-.17l2.79.18a.18.18,0,0,1,.15.18l-.1,1.89a.15.15,0,0,1-.16.16L2.3,136.3a.16.16,0,0,1-.14-.19Zm-.33,6.64.05-1a.17.17,0,0,1,.15-.17l2.8.07a.16.16,0,0,1,.14.18l0,.94,0,.94a.19.19,0,0,1-.17.18L2,142a.17.17,0,0,1-.14-.19ZM2,147.49l-.1-1.92a.16.16,0,0,1,.14-.18l2.79,0a.18.18,0,0,1,.16.18l.1,1.88a.16.16,0,0,1-.14.18l-2.8.09A.17.17,0,0,1,2,147.49Zm.31,5.7-.11-1.94a.16.16,0,0,1,.14-.18l2.79-.16a.17.17,0,0,1,.16.17L5.44,153a.18.18,0,0,1-.14.18l-2.79.2A.17.17,0,0,1,2.35,153.19ZM2.86,159c-.08,0-.15-.06-.16-.15l-.12-1.93a.16.16,0,0,1,.13-.19l2.79-.26a.16.16,0,0,1,.16.15l.12,1.89c0,.09-.06.18-.14.18Zm.72,5.48-.31-1.91a.15.15,0,0,1,.11-.19L6.16,162a.17.17,0,0,1,.17.15L6.65,164a.16.16,0,0,1-.13.19l-2.76.43A.18.18,0,0,1,3.58,164.5Zm1,5.63-.33-1.9a.18.18,0,0,1,.12-.21l2.75-.49a.17.17,0,0,1,.18.15l.32,1.86a.18.18,0,0,1-.12.21l-2.74.53A.18.18,0,0,1,4.54,170.13Zm1.28,5.74a.19.19,0,0,1-.2-.14,13.76,13.76,0,0,1-.42-1.88.17.17,0,0,1,.11-.21L8,173a.16.16,0,0,1,.18.14A14.42,14.42,0,0,0,8.64,175a.15.15,0,0,1-.1.2Zm1.36,5.36-.53-1.86a.16.16,0,0,1,.09-.21l2.71-.71a.16.16,0,0,1,.19.13l.52,1.82a.15.15,0,0,1-.1.2l-2.69.76A.17.17,0,0,1,7.18,181.23ZM9,186.84a.15.15,0,0,1-.19-.12l-.55-1.86a.19.19,0,0,1,.09-.22l2.68-.81a.15.15,0,0,1,.19.11l.53,1.82a.18.18,0,0,1-.09.22Zm1.65,5.27-.72-1.79a.16.16,0,0,1,.07-.22l2.64-.93a.18.18,0,0,1,.21.12l.71,1.75a.17.17,0,0,1-.07.22l-2.63,1C10.75,192.26,10.65,192.2,10.61,192.11Zm2.37,5.4a.16.16,0,0,1-.21-.11L12,195.61a.16.16,0,0,1,.07-.22l2.6-1a.16.16,0,0,1,.2.1l.72,1.75a.16.16,0,0,1-.07.22Zm2,5.17-.37-.89-.38-.9a.18.18,0,0,1,.07-.22l2.56-1.14a.16.16,0,0,1,.2.09l.36.88.37.87a.18.18,0,0,1-.07.23l-2.54,1.18C15.09,202.82,15,202.77,15,202.68Zm2.58,5.08-.91-1.7c0-.08,0-.19.05-.22l2.5-1.24a.17.17,0,0,1,.22.08l.9,1.67a.16.16,0,0,1-.05.22l-2.49,1.28A.17.17,0,0,1,17.54,207.76Zm2.73,5-.93-1.71a.17.17,0,0,1,.05-.23l2.45-1.34a.17.17,0,0,1,.22.08l.91,1.67a.17.17,0,0,1-.06.22l-2.43,1.38A.16.16,0,0,1,20.27,212.79Zm5.4,3.55-2.37,1.48a.18.18,0,0,1-.23-.07s-1-1.66-1-1.66a.17.17,0,0,1,0-.23l2.4-1.44a.15.15,0,0,1,.21.07s.92,1.65,1,1.62A.17.17,0,0,1,25.67,216.34Zm28-22.09L26.4,209.82A1.75,1.75,0,0,1,24,209s-5.06-9.17-4.78-9.31l-4-9.69a1.71,1.71,0,0,1,.87-2.34l29.63-10.35a1.71,1.71,0,0,1,2.15.76l3,7.21s.18.45.46,1.12.8,1.51,1.25,2.37l1.87,3.42A1.62,1.62,0,0,1,53.65,194.25Zm16.12,11.18.87,1a.13.13,0,0,1,0,.18l-2.11,1.84a.14.14,0,0,1-.19,0l-.89-1a.14.14,0,0,1,0-.19l2.13-1.81C69.65,205.38,69.73,205.37,69.77,205.43Zm-2.56-2.94.87,1a.14.14,0,0,1,0,.19l-2.18,1.76a.16.16,0,0,1-.2,0l-.9-1a.14.14,0,0,1,0-.19L67,202.49A.16.16,0,0,1,67.21,202.49Zm-2.43-3.19c.07-.05.15-.05.19,0l.75,1.09a.15.15,0,0,1,0,.19l-2.25,1.66a.14.14,0,0,1-.19,0l-.77-1.13a.15.15,0,0,1,0-.19Zm-2.22-3.21a.15.15,0,0,1,.2,0l.75,1.08a.13.13,0,0,1,0,.18L61.15,199a.15.15,0,0,1-.2,0l-.77-1.12a.13.13,0,0,1,0-.18Zm-2.13-3.25a.12.12,0,0,1,.18,0,13.07,13.07,0,0,0,.67,1.14.13.13,0,0,1-.06.17l-2.37,1.48a.16.16,0,0,1-.2,0s-.68-1.18-.69-1.18a.15.15,0,0,1,.07-.18Zm-1.84-3.44a.14.14,0,0,1,.19,0l.62,1.16a.15.15,0,0,1-.07.18l-2.43,1.38a.14.14,0,0,1-.19,0l-.65-1.2a.17.17,0,0,1,.07-.19ZM56.91,186l.63,1.16c0,.05,0,.13-.07.17L55,188.64a.15.15,0,0,1-.2,0l-.65-1.19a.12.12,0,0,1,.07-.17L56.72,186A.15.15,0,0,1,56.91,186Zm-1.82-3.57c.08,0,.16,0,.18,0l.24.61.25.62a.14.14,0,0,1-.09.17l-2.53,1.19A.15.15,0,0,1,53,185l-.25-.64-.25-.63c0-.06,0-.14.09-.17Zm-1.28-3.54.49,1.21a.14.14,0,0,1-.08.18l-2.59,1.07a.13.13,0,0,1-.18-.06l-.52-1.25a.16.16,0,0,1,.09-.18l2.6-1A.15.15,0,0,1,53.81,178.92Zm-1.69-3.65a.14.14,0,0,1,.19.07l.51,1.21a.12.12,0,0,1-.09.16l-2.63,1a.13.13,0,0,1-.18-.07l-.53-1.24a.13.13,0,0,1,.09-.17ZM51,171.54a.13.13,0,0,1,.17.07l.36,1.27a.15.15,0,0,1-.11.16l-2.66.86a.14.14,0,0,1-.18-.07l-.36-1.31a.14.14,0,0,1,.1-.16ZM50,167.81a.15.15,0,0,1,.18.07l.37,1.27c0,.06,0,.12-.11.15l-2.7.75a.14.14,0,0,1-.17-.07l-.38-1.31c0-.07,0-.13.11-.15Zm-.84-3.67a7,7,0,0,0,.29,1.28.13.13,0,0,1-.11.15l-2.72.64a.15.15,0,0,1-.18-.09,7.13,7.13,0,0,1-.3-1.31.16.16,0,0,1,.12-.16l2.73-.6A.13.13,0,0,1,49.12,164.14Zm-.41-2.54a.14.14,0,0,1-.13.15l-2.74.53a.14.14,0,0,1-.17-.09l-.22-1.34a.14.14,0,0,1,.12-.15l2.76-.49a.12.12,0,0,1,.16.09ZM49,122.94a.15.15,0,0,1-.18.08l-2.74-.58a.15.15,0,0,1-.11-.15l.35-1.31a.14.14,0,0,1,.17-.09l2.73.62a.13.13,0,0,1,.11.16Zm1-3.76a.12.12,0,0,1-.17.08l-2.71-.69a.13.13,0,0,1-.11-.16l.33-1.31a.13.13,0,0,1,.17-.09l2.7.74a.15.15,0,0,1,.12.16Zm1-3.76a.13.13,0,0,1-.17.07l-2.68-.8a.15.15,0,0,1-.11-.17s.34-1.31.38-1.3a.14.14,0,0,1,.18-.07l2.67.84a.14.14,0,0,1,.1.16A11.49,11.49,0,0,0,50.93,115.42Zm1.26-3.67a.13.13,0,0,1-.18.06l-2.64-.91a.14.14,0,0,1-.1-.16l.47-1.28a.14.14,0,0,1,.18-.06l2.63.95a.14.14,0,0,1,.1.16Zm1.34-3.64a.14.14,0,0,1-.18,0l-2.61-1c-.07,0-.12-.1-.09-.16l.46-1.29a.14.14,0,0,1,.18-.06l2.59,1.06a.15.15,0,0,1,.09.17ZM55,104.5a.14.14,0,0,1-.19,0l-2.56-1.12a.13.13,0,0,1-.08-.17l.59-1.22a.14.14,0,0,1,.19-.05l2.55,1.16a.15.15,0,0,1,.08.17Zm2-4.09-.28.6a.15.15,0,0,1-.19,0L54,99.83a.15.15,0,0,1-.07-.18l.29-.62.3-.61a.12.12,0,0,1,.18,0l2.49,1.26a.14.14,0,0,1,.08.18Zm1.38-2.91a.12.12,0,0,1-.18,0L55.7,96.21a.16.16,0,0,1-.08-.19s.69-1.16.69-1.16a.15.15,0,0,1,.2,0L59,96.19a.12.12,0,0,1,.06.17A11.74,11.74,0,0,0,58.34,97.5Zm2-3.33a.14.14,0,0,1-.19,0l-2.41-1.42a.16.16,0,0,1-.06-.19l.71-1.16a.14.14,0,0,1,.19,0L61,92.87a.14.14,0,0,1,.06.18Zm2-3.33a.12.12,0,0,1-.18,0l-2.35-1.52a.16.16,0,0,1-.06-.19l.7-1.17a.12.12,0,0,1,.18,0L63,89.52a.15.15,0,0,1,.06.19Zm2.19-3.2s-.12,0-.18,0L62.09,86a.14.14,0,0,1-.05-.18l.82-1.09a.14.14,0,0,1,.2,0l2.25,1.65a.13.13,0,0,1,0,.18Zm2.34-3.12a.14.14,0,0,1-.19,0L64.5,82.82a.16.16,0,0,1,0-.19l.81-1.09a.13.13,0,0,1,.19,0l2.2,1.74a.16.16,0,0,1,0,.19Zm2.37-3.09a.15.15,0,0,1-.2,0l-2.15-1.79a.14.14,0,0,1,0-.19l.92-1a.14.14,0,0,1,.2,0l2.12,1.83a.12.12,0,0,1,0,.18Zm2.63-2.87s-.12,0-.19,0l-2.07-1.87a.15.15,0,0,1,0-.2l.92-1a.15.15,0,0,1,.19,0l2,1.91a.13.13,0,0,1,0,.19Zm3-3.38-.44.49s-.12,0-.18,0l-2-2a.16.16,0,0,1,0-.2l.46-.51a3.81,3.81,0,0,1,.5-.46.14.14,0,0,1,.19,0l2,2a.13.13,0,0,1,0,.19A3.88,3.88,0,0,0,75,75.18ZM77.35,73a.14.14,0,0,1-.19,0l-1.92-2a.14.14,0,0,1,0-.19l1-.91a.14.14,0,0,1,.2,0l1.88,2.07a.13.13,0,0,1,0,.19Zm2.88-2.63a.13.13,0,0,1-.19,0l-1.83-2.11a.15.15,0,0,1,0-.19l1-.93a.13.13,0,0,1,.18,0l1.8,2.14a.14.14,0,0,1,0,.2Zm4-3.29-.53.4-.53.39a.16.16,0,0,1-.2,0l-1.74-2.19a.13.13,0,0,1,0-.19l.55-.41.54-.4a.14.14,0,0,1,.19,0l1.72,2.22A.13.13,0,0,1,84.27,67.09Zm3.11-2.33-1,.79c-.06,0-.13,0-.18,0l-1.66-2.25a.14.14,0,0,1,0-.2l1.09-.82a.14.14,0,0,1,.18,0l1.63,2.28A.14.14,0,0,1,87.38,64.76Zm-.54-5.94a8,8,0,0,0-1,.7L83.7,61.14l-3.12,2.33-1,.72a15.35,15.35,0,0,0-2.06,1.72l-2.88,2.64a1.62,1.62,0,0,1-2.22-.27L50.89,45.47A1.77,1.77,0,0,1,51.15,43L55,39.44a25,25,0,0,1,2.76-2.3l1.3-1L63.28,33l2.89-2.15a13.17,13.17,0,0,1,1.34-.93,1.86,1.86,0,0,1,2.55.41L87.15,56.67A1.5,1.5,0,0,1,86.84,58.82Zm3.73,3.72-1.13.67a.15.15,0,0,1-.19-.05l-1.56-2.32a.13.13,0,0,1,0-.19l1.17-.7a.16.16,0,0,1,.19.06l1.53,2.34A.13.13,0,0,1,90.57,62.54Zm3.33-2-1.12.69a.14.14,0,0,1-.18-.07l-1.47-2.38a.14.14,0,0,1,0-.19l1.17-.7a.13.13,0,0,1,.18.06l1.43,2.4A.13.13,0,0,1,93.9,60.53Zm3.32-2-1.13.7a.13.13,0,0,1-.17-.07l-1.37-2.44a.14.14,0,0,1,0-.19l1.16-.72a.13.13,0,0,1,.17.07l1.34,2.46A.15.15,0,0,1,97.22,58.49Zm3.5-1.67-1.18.56a.14.14,0,0,1-.18-.07l-1.27-2.49a.14.14,0,0,1,0-.19L99.36,54a.16.16,0,0,1,.18.08l1.23,2.51A.14.14,0,0,1,100.72,56.82Zm3.5-1.7L103,55.7a.13.13,0,0,1-.17-.08l-1.18-2.54a.15.15,0,0,1,0-.19L103,52.3a.13.13,0,0,1,.18.08l1.13,2.56A.14.14,0,0,1,104.22,55.12Zm-4.54-3.47L94.85,54l-2.08,1.28a1.55,1.55,0,0,1-2.08-.7l-16-27a1.83,1.83,0,0,1,.78-2.44c-.28-.5,18.72-9.41,18.9-9a1.8,1.8,0,0,1,2.38.92l10.86,29.44a1.57,1.57,0,0,1-.77,2.07l-2.28.83C103.15,49.85,101.45,50.84,99.68,51.65Zm8.13,2-1.24.45a.14.14,0,0,1-.17-.1l-1.07-2.59a.12.12,0,0,1,.06-.17l1.28-.47a.16.16,0,0,1,.17.1l1,2.6A.13.13,0,0,1,107.81,53.64Zm3.65-1.33-1.24.46a.13.13,0,0,1-.16-.1l-1-2.63a.16.16,0,0,1,.07-.18l1.28-.47a.15.15,0,0,1,.16.1l.92,2.64C111.54,52.21,111.52,52.29,111.46,52.31Zm3.65-1.3a10.7,10.7,0,0,0-1.25.4c-.07,0-.13,0-.16-.09l-.85-2.67c0-.07,0-.16.06-.18a8.89,8.89,0,0,1,1.3-.41.15.15,0,0,1,.17.11l.81,2.67C115.21,50.92,115.18,51,115.11,51Zm3.77-.94-1.28.32a.13.13,0,0,1-.15-.11l-.75-2.7a.14.14,0,0,1,.08-.17l1.32-.33a.14.14,0,0,1,.16.11l.7,2.71A.14.14,0,0,1,118.88,50.07Zm3.76-1-.64.16-.64.17a.13.13,0,0,1-.15-.11l-.64-2.72a.16.16,0,0,1,.1-.18l.65-.17.66-.18a.14.14,0,0,1,.15.12l.59,2.73A.15.15,0,0,1,122.64,49.09Zm-1.76-4.82-7.55,1.93a1.56,1.56,0,0,1-1.86-1.14L101.81,15.2a1.82,1.82,0,0,1,1.3-2.22l10.15-2.62a37.47,37.47,0,0,1,5.13-1l5.17-.79a1.76,1.76,0,0,1,2.12,1.38L129.74,41a1.62,1.62,0,0,1-1.19,1.89S120.83,44,120.88,44.27Zm5.58,4.12-1.31.2a.13.13,0,0,1-.14-.13l-.53-2.75a.13.13,0,0,1,.1-.16l1.34-.2a.14.14,0,0,1,.15.13l.48,2.75A.12.12,0,0,1,126.46,48.39Zm3.84-.58L129,48a.13.13,0,0,1-.14-.12l-.42-2.77a.15.15,0,0,1,.11-.17l1.34-.21a.15.15,0,0,1,.15.13l.36,2.78A.13.13,0,0,1,130.3,47.81Zm0-42.23-1,.06c-.47,0-.93.11-.93.11a.16.16,0,0,1-.19-.12l-.3-2.78a.17.17,0,0,1,.16-.17,8.62,8.62,0,0,1,1-.12l1-.06a.17.17,0,0,1,.19.14l.26,2.78A.16.16,0,0,1,130.27,5.58Zm3.88,41.71-.66,0a4,4,0,0,0-.65.08.13.13,0,0,1-.14-.12l-.3-2.78a.16.16,0,0,1,.11-.17,3.73,3.73,0,0,1,.68-.09l.68,0a.13.13,0,0,1,.13.14l.26,2.79A.13.13,0,0,1,134.15,47.29Zm3.9-.18-1.32.07c-.07,0-.12-.06-.13-.15l-.19-2.79c0-.07,0-.15.11-.15l1.37-.07a.14.14,0,0,1,.12.15l.15,2.79C138.16,47,138.12,47.11,138.05,47.11Zm3.9-.21-1.32.07c-.07,0-.13,0-.13-.14L140.42,44a.14.14,0,0,1,.12-.15l1.36-.08A.13.13,0,0,1,142,44l0,2.79A.15.15,0,0,1,142,46.9Zm4-.07c0,.09-.05.15-.12.14l-1.32-.07c-.07,0-.12-.07-.12-.16l0-2.79a.13.13,0,0,1,.13-.14l1.36.08A.14.14,0,0,1,146,44Zm3.91.21a.15.15,0,0,1-.13.14l-1.32-.07a.14.14,0,0,1-.12-.15l.14-2.79a.16.16,0,0,1,.14-.15l1.36.07c.07,0,.12.08.12.15Zm3.89.24a.12.12,0,0,1-.13.12,4.27,4.27,0,0,0-.66-.08l-.66,0a.14.14,0,0,1-.11-.15l.26-2.79a.15.15,0,0,1,.14-.14l.68,0a3.71,3.71,0,0,1,.67.09.15.15,0,0,1,.11.17Zm-1.14-6.77A1.68,1.68,0,0,1,151,42.12l-7.8-.41-7.8.41a1.68,1.68,0,0,1-1.59-1.61L131,9.25a1.73,1.73,0,0,1,1.76-1.78L143.23,7l10.44.51a1.74,1.74,0,0,1,1.77,1.78ZM156.3,2.64a.18.18,0,0,1,.18-.14l1,.06a6.79,6.79,0,0,1,1,.12.16.16,0,0,1,.15.17l-.3,2.78a.14.14,0,0,1-.18.12s-.47-.08-.94-.11l-.94-.06a.16.16,0,0,1-.16-.16Zm1.31,45.25a.13.13,0,0,1-.14.12l-1.31-.2a.13.13,0,0,1-.09-.16l.36-2.78c0-.07.07-.14.14-.13l1.35.21a.15.15,0,0,1,.1.17Zm3.85.57a.17.17,0,0,1-.15.13l-1.3-.2c-.06,0-.11-.08-.1-.16l.48-2.75c0-.08.09-.14.15-.13l1.35.2a.13.13,0,0,1,.09.16Zm3.79.85c0,.08-.08.13-.15.11l-.63-.17-.64-.16a.15.15,0,0,1-.09-.18l.59-2.74a.15.15,0,0,1,.16-.11l.66.18.65.17a.16.16,0,0,1,.09.17Zm3.77,1a.13.13,0,0,1-.16.11l-1.27-.32a.14.14,0,0,1-.09-.18l.71-2.7a.13.13,0,0,1,.16-.11l1.31.33a.13.13,0,0,1,.08.17Zm3.74,1a.12.12,0,0,1-.16.09,8.92,8.92,0,0,0-1.24-.39.13.13,0,0,1-.08-.18l.81-2.67c0-.07.1-.13.16-.11a8.07,8.07,0,0,1,1.29.41.15.15,0,0,1,.08.18Zm.37-5.13-7.54-1.92c0-.25-7.67-1.36-7.67-1.36A1.62,1.62,0,0,1,156.73,41L160.79,9.9a1.75,1.75,0,0,1,2.11-1.38l5.18.79a37.87,37.87,0,0,1,5.13,1L183.35,13a1.82,1.82,0,0,1,1.31,2.22L175,45.06A1.55,1.55,0,0,1,173.13,46.19Zm3.28,6.48a.14.14,0,0,1-.16.1L175,52.31a.13.13,0,0,1-.06-.18l.91-2.64a.16.16,0,0,1,.17-.1l1.28.47a.14.14,0,0,1,.06.18ZM180.06,54a.14.14,0,0,1-.16.1l-1.24-.45a.13.13,0,0,1-.06-.18l1-2.6a.15.15,0,0,1,.16-.1l1.28.47a.12.12,0,0,1,.06.17Zm3.54,1.63c0,.08-.11.11-.17.08l-1.18-.58a.14.14,0,0,1-.06-.18l1.14-2.56a.13.13,0,0,1,.17-.08l1.22.59a.15.15,0,0,1,.05.19Zm3.5,1.69a.13.13,0,0,1-.17.07l-1.19-.56a.15.15,0,0,1-.05-.19l1.24-2.51a.15.15,0,0,1,.18-.08l1.22.59a.14.14,0,0,1,0,.19Zm3.44,1.81a.13.13,0,0,1-.17.07l-1.12-.7a.14.14,0,0,1,0-.19l1.34-2.46a.13.13,0,0,1,.18-.07l1.16.72a.16.16,0,0,1,0,.19Zm3.33,2c-.05.07-.12.1-.18.06l-1.13-.68a.14.14,0,0,1,0-.19l1.44-2.4a.13.13,0,0,1,.18-.06l1.16.7a.14.14,0,0,1,0,.19Zm-.18-5.92L191.62,54l-4.84-2.31c-1.77-.8-3.46-1.79-4.85-2.25l-2.29-.83a1.57,1.57,0,0,1-.76-2.07L189.73,17a1.81,1.81,0,0,1,2.38-.91c.18-.44,19.18,8.47,18.9,9a1.83,1.83,0,0,1,.78,2.44l-16,27A1.55,1.55,0,0,1,193.69,55.23Zm3.52,7.93a.14.14,0,0,1-.18.05l-1.14-.67a.13.13,0,0,1,0-.19L197.4,60a.15.15,0,0,1,.18-.06l1.17.7a.14.14,0,0,1,0,.19Zm2.11-6.49,17.09-26.32a1.86,1.86,0,0,1,2.55-.41,14.66,14.66,0,0,1,1.34.93L223.19,33l4.19,3.14,1.3,1a25,25,0,0,1,2.76,2.3L235.31,43a1.77,1.77,0,0,1,.27,2.52L214,68.28a1.61,1.61,0,0,1-2.22.26l-2.88-2.63a16,16,0,0,0-2.06-1.72l-1-.72-3.13-2.33-2.14-1.62a9.52,9.52,0,0,0-1-.7A1.5,1.5,0,0,1,199.32,56.67Zm1,8.84a.13.13,0,0,1-.19,0l-1-.79a.14.14,0,0,1,0-.19l1.62-2.28a.15.15,0,0,1,.19,0l1.08.82a.16.16,0,0,1,0,.2Zm3.13,2.33a.15.15,0,0,1-.19,0l-.53-.39-.53-.4a.14.14,0,0,1,0-.19l1.71-2.21a.15.15,0,0,1,.19,0l.55.41.55.4a.13.13,0,0,1,0,.19Zm3,2.51a.12.12,0,0,1-.18,0l-1-.89c-.06,0-.05-.13,0-.2l1.8-2.14a.13.13,0,0,1,.19,0l1,.92a.15.15,0,0,1,0,.2Zm2.7,2.65-1-.88a.13.13,0,0,1,0-.19L210,69.86a.14.14,0,0,1,.2,0l1,.91a.13.13,0,0,1,0,.19l-1.92,2A.13.13,0,0,1,209.12,73ZM212,75.67l-.43-.49a5.89,5.89,0,0,0-.48-.46c-.06,0,0-.12,0-.18l2-2a.16.16,0,0,1,.2,0,5.51,5.51,0,0,1,.5.47c.22.26.45.51.45.51a.15.15,0,0,1,0,.2l-2,2A.13.13,0,0,1,212,75.67Zm2.61,2.89-.88-1a.12.12,0,0,1,0-.18l2-1.92a.14.14,0,0,1,.19,0l.91,1a.14.14,0,0,1,0,.19l-2.08,1.88A.13.13,0,0,1,214.56,78.56Zm2.63,2.87-.89-1a.13.13,0,0,1,0-.18l2.12-1.83a.15.15,0,0,1,.2,0l.92,1a.14.14,0,0,1,0,.19l-2.15,1.79A.15.15,0,0,1,217.19,81.43Zm2.37,3.09-.78-1.06a.15.15,0,0,1,0-.19L221,81.53a.13.13,0,0,1,.19,0l.81,1.09a.13.13,0,0,1,0,.19l-2.22,1.71A.13.13,0,0,1,219.56,84.52Zm2.34,3.12-.79-1.06c-.05,0,0-.13,0-.18l2.26-1.65a.13.13,0,0,1,.19,0l.82,1.09a.13.13,0,0,1,0,.18l-2.29,1.61A.13.13,0,0,1,221.9,87.64Zm2.38,3.22a.13.13,0,0,1-.19,0l-.67-1.13a.14.14,0,0,1,.06-.19L225.8,88a.14.14,0,0,1,.19,0l.7,1.17a.15.15,0,0,1-.06.18Zm2,3.34a.15.15,0,0,1-.2,0L225.42,93a.12.12,0,0,1,.06-.17l2.39-1.47a.13.13,0,0,1,.18,0l.71,1.16a.14.14,0,0,1-.06.19Zm2,3.33a.14.14,0,0,1-.19,0,10.82,10.82,0,0,0-.67-1.13.13.13,0,0,1,.07-.17L230,94.82a.15.15,0,0,1,.19,0,11.56,11.56,0,0,1,.69,1.17.15.15,0,0,1-.07.19Zm1.67,3.52a.14.14,0,0,1-.19,0l-.28-.59-.29-.6a.14.14,0,0,1,.08-.18l2.49-1.27a.17.17,0,0,1,.2,0l.29.62.29.61a.15.15,0,0,1-.08.18Zm1.51,3.45-.58-1.18a.13.13,0,0,1,.08-.17l2.54-1.16a.15.15,0,0,1,.2.05l.59,1.22a.13.13,0,0,1-.08.17l-2.56,1.12A.14.14,0,0,1,231.49,104.5Zm1.63,3.66a.13.13,0,0,1-.18-.06l-.44-1.24a.13.13,0,0,1,.09-.17l2.59-1.06a.14.14,0,0,1,.18.06l.46,1.28a.14.14,0,0,1-.09.17Zm1.33,3.65a.14.14,0,0,1-.18-.06l-.45-1.24a.13.13,0,0,1,.09-.16l2.63-1a.17.17,0,0,1,.19.07l.47,1.28a.14.14,0,0,1-.1.16Zm1.26,3.68c-.08,0-.16,0-.17-.08s-.33-1.27-.37-1.26a.12.12,0,0,1,.1-.15l2.67-.85a.15.15,0,0,1,.18.07s.38,1.3.38,1.3a.15.15,0,0,1-.11.16Zm.95,3.77a.13.13,0,0,1-.17-.08l-.33-1.27a.14.14,0,0,1,.11-.16L239,117a.13.13,0,0,1,.17.08l.34,1.32c0,.06,0,.14-.11.16Zm1,3.76a.14.14,0,0,1-.17-.08l-.34-1.28a.15.15,0,0,1,.12-.15l2.72-.62a.15.15,0,0,1,.18.09l.35,1.31a.14.14,0,0,1-.12.15ZM238,160.3a.14.14,0,0,1,.17-.09l2.76.49a.14.14,0,0,1,.12.15l-.23,1.34a.13.13,0,0,1-.16.09l-2.74-.53a.15.15,0,0,1-.13-.15Zm-.62,3.84a.12.12,0,0,1,.16-.09l2.73.6a.15.15,0,0,1,.13.15,7.42,7.42,0,0,1-.3,1.32.14.14,0,0,1-.18.09l-2.72-.64c-.09,0-.13-.09-.11-.15A7,7,0,0,0,237.35,164.14Zm-1,3.74a.15.15,0,0,1,.18-.08l2.7.71a.13.13,0,0,1,.11.16l-.38,1.31a.13.13,0,0,1-.17.07l-2.7-.75c-.08,0-.13-.09-.11-.16Zm-1.07,3.73a.13.13,0,0,1,.17-.07l2.67.82a.16.16,0,0,1,.12.16l-.37,1.31a.15.15,0,0,1-.18.07L235,173c-.08,0-.13-.1-.11-.16Zm-1.1,3.72a.15.15,0,0,1,.19-.06l2.64.93a.14.14,0,0,1,.09.16l-.53,1.25a.14.14,0,0,1-.19.07l-2.62-1c-.08,0-.12-.11-.09-.16Zm-1.5,3.59a.15.15,0,0,1,.19-.06l2.6,1a.13.13,0,0,1,.08.17l-.51,1.26a.14.14,0,0,1-.18.06l-2.59-1.08a.15.15,0,0,1-.09-.17ZM231,183.13l.25-.62a.12.12,0,0,1,.18,0l2.55,1.14c.07,0,.12.11.09.17l-.25.64-.25.63a.15.15,0,0,1-.19.05l-2.53-1.18c-.08,0-.12-.11-.09-.17Zm-12.78,25.33a.15.15,0,0,1-.2,0l-2.1-1.84a.13.13,0,0,1,0-.19l.87-1a.12.12,0,0,1,.19,0l2.14,1.81a.14.14,0,0,1,0,.19Zm2.63-3a.14.14,0,0,1-.2,0l-2.17-1.75c-.07-.06-.09-.14,0-.19l.87-1a.15.15,0,0,1,.2,0l2.2,1.72a.14.14,0,0,1,0,.19Zm2.44-3.19a.13.13,0,0,1-.19,0l-2.25-1.67a.13.13,0,0,1-.05-.18l.74-1.09a.14.14,0,0,1,.19,0l2.28,1.63a.15.15,0,0,1,0,.19Zm2.27-3.31a.13.13,0,0,1-.19,0L223,197.37a.14.14,0,0,1-.06-.18l.76-1.08a.13.13,0,0,1,.19,0l2.34,1.54a.13.13,0,0,1,0,.18Zm2.31-3.28a.16.16,0,0,1-.2,0l-2.37-1.48c-.07-.05-.1-.12-.06-.17a13.07,13.07,0,0,0,.67-1.14.13.13,0,0,1,.18,0l2.4,1.44a.15.15,0,0,1,.06.19S227.86,195.66,227.82,195.64Zm1.94-3.52a.14.14,0,0,1-.19,0l-2.43-1.38c-.08-.05-.11-.12-.07-.18l.62-1.16a.14.14,0,0,1,.19,0l2.45,1.34a.14.14,0,0,1,.07.19Zm1.72-3.48L229,187.36a.13.13,0,0,1-.08-.17l.64-1.16a.14.14,0,0,1,.19,0l2.51,1.24a.13.13,0,0,1,.07.18l-.66,1.19A.14.14,0,0,1,231.48,188.64Zm1.33,5.62a1.63,1.63,0,0,1-.78-2.1l1.87-3.42c.45-.86,1-1.68,1.25-2.36s.46-1.13.46-1.13l2.95-7.21a1.7,1.7,0,0,1,2.15-.76l29.62,10.35a1.7,1.7,0,0,1,.87,2.34l-4,9.69c.28.14-4.77,9.31-4.77,9.31a1.78,1.78,0,0,1-2.39.86Zm27.36,28.19a.16.16,0,0,1-.21.06l-2.32-1.58a.16.16,0,0,1,0-.22l1.08-1.56a.16.16,0,0,1,.22-.05l2.33,1.54a.15.15,0,0,1,0,.22Zm3.23-4.7a.18.18,0,0,1-.23.06l-2.37-1.48a.15.15,0,0,1,0-.22s1-1.62,1-1.62a.16.16,0,0,1,.21-.08l2.4,1.44a.17.17,0,0,1,0,.23S263.44,217.77,263.4,217.75Zm2.8-5a.15.15,0,0,1-.21.09l-2.44-1.38a.17.17,0,0,1,0-.23l.9-1.66a.17.17,0,0,1,.22-.08l2.45,1.34a.18.18,0,0,1,.05.23Zm2.72-5a.16.16,0,0,1-.21.09l-2.49-1.28a.17.17,0,0,1-.05-.23l.9-1.66a.16.16,0,0,1,.21-.09l2.51,1.25a.15.15,0,0,1,0,.22Zm3-6-.37.89a.17.17,0,0,1-.21.1l-2.53-1.18a.17.17,0,0,1-.07-.22l.36-.88.36-.87a.18.18,0,0,1,.21-.11l2.56,1.14a.18.18,0,0,1,.06.23Zm1.82-4.39a.17.17,0,0,1-.2.11l-2.59-1.08a.17.17,0,0,1-.07-.22l.72-1.75a.16.16,0,0,1,.21-.1l2.59,1a.16.16,0,0,1,.07.22Zm2.15-5.29a.18.18,0,0,1-.2.12l-2.63-1A.17.17,0,0,1,273,191l.71-1.76a.17.17,0,0,1,.2-.11l2.64.93a.16.16,0,0,1,.08.21Zm1.85-5.4a.16.16,0,0,1-.19.13l-2.66-.87a.17.17,0,0,1-.1-.21l.54-1.82a.16.16,0,0,1,.19-.12l2.67.82a.18.18,0,0,1,.1.21Zm1.59-5.48a.17.17,0,0,1-.19.13l-2.7-.76a.16.16,0,0,1-.09-.2l.51-1.83a.16.16,0,0,1,.2-.12l2.71.7a.17.17,0,0,1,.09.22Zm1.55-5.5a.16.16,0,0,1-.19.13l-2.72-.64a.15.15,0,0,1-.1-.2,14.57,14.57,0,0,0,.42-1.85.16.16,0,0,1,.18-.13l2.73.6a.16.16,0,0,1,.11.2A13.94,13.94,0,0,1,280.84,175.73Zm1.08-5.6a.16.16,0,0,1-.17.15l-2.75-.54a.18.18,0,0,1-.12-.2l.33-1.86a.17.17,0,0,1,.17-.15l2.76.49a.17.17,0,0,1,.11.2Zm1-5.63a.16.16,0,0,1-.17.15l-2.77-.42a.18.18,0,0,1-.12-.2l.31-1.86a.17.17,0,0,1,.18-.15l2.77.38a.15.15,0,0,1,.12.19Zm.89-5.63a.15.15,0,0,1-.16.15l-2.78-.31a.18.18,0,0,1-.14-.18l.12-1.89a.16.16,0,0,1,.16-.16l2.79.26a.17.17,0,0,1,.13.2Zm.35-5.7a.18.18,0,0,1-.16.18l-2.79-.2A.17.17,0,0,1,281,153l.11-1.88a.16.16,0,0,1,.16-.17l2.79.15a.19.19,0,0,1,.14.19Zm.31-5.68a.16.16,0,0,1-.15.17l-2.8-.08a.17.17,0,0,1-.14-.18l.09-1.89a.17.17,0,0,1,.16-.17l2.8,0a.16.16,0,0,1,.14.18Zm0-5.51-2.8,0a.17.17,0,0,1-.16-.16l0-1,0-.94a.17.17,0,0,1,.14-.19l2.8-.07a.17.17,0,0,1,.15.19l.05,1,0,1A.16.16,0,0,1,284.44,142Z"/><path class="cls-7" d="M129,.52h27V14.64h5C158.63,37,175.56,99,181.55,102.11v9.12l7.63,0v10.87L174.13,151.4l.26,11.24h2.34l.26,10.72h19s1.3,11.24,5,15.95,9.13,19.2,9.13,19.2l-140.95,0s6.13-1.86,9.06-5.58.2-7.26,7.43-9.81c0,0,5.47-10,11.91-9.8h9.38V151.92L93.44,122.05V111.52h8.5v-9.41C112.78,85.37,125.3,45.17,124.11,15h4.5Z"/><rect class="cls-8" x="131.8" y="153.48" width="18.54" height="55.02"/><path class="cls-9" d="M93.44,121.59h95.74l-15,30.15.24,10.28h2.34L177,172.7h5.54l.58,21.29h-4.88s0-5.92-3.32-5.72V177.52h-6.45V154.27l-3.13.2v3.32h-2.14l-.2-14.06H119.42v13.08h-5.66v24.33h-1.17l-.2-5.18h-5.47V151.34Z"/><path class="cls-9" d="M106.94,183.27v5.57s-2.74,0-2.54,6.2H81.93a8.7,8.7,0,0,1,3.71-2s5.57-9.77,11.92-9.77Z"/></g></g></svg>